<svg width="56" height="50" viewBox="0 0 56 50" fill="none" xmlns="http://www.w3.org/2000/svg">
<path d="M11.1113 19.4453C14.4585 19.4453 17.1719 22.1587 17.1719 25.5059V43.9403C17.1719 47.2874 14.4585 50.0009 11.1113 50.0009V19.4453Z" fill="#37D3D3"/>
<path d="M43.9395 19.4453C40.5923 19.4453 37.8788 22.1587 37.8788 25.5059V43.9403C37.8788 47.2874 40.5923 50.0009 43.9395 50.0009V19.4453Z" fill="#37D3D3"/>
<path d="M34.6543 23.5664C36.1731 25.0852 36.1731 27.5477 34.6543 29.0665L27.4528 36.268C25.934 34.7492 25.934 32.2867 27.4528 30.7679L34.6543 23.5664Z" fill="#37D3D3"/>
<path d="M26.8663 29.1671C26.8663 29.1671 25.9921 30.0095 25.6316 30.6824C25.2199 31.4507 25.0312 32.8321 25.0312 32.8321L21.1846 28.9855C19.6658 27.4667 19.6658 25.0042 21.1846 23.4854L26.8663 29.1671Z" fill="#37D3D3"/>
<circle cx="14.1416" cy="14.8994" r="3.0303" fill="#37D3D3"/>
<circle cx="40.9092" cy="14.8994" r="3.0303" fill="#37D3D3"/>
<mask id="path-7-inside-1_951_1151" fill="white">
<path d="M43.939 49.997C48.641 46.5698 52.1421 41.7467 53.9438 36.2142C55.7456 30.6818 55.7563 24.7219 53.9743 19.183C52.1924 13.6442 48.7086 8.80853 44.019 5.36447C39.3293 1.92041 33.6727 0.0434422 27.8544 0.000744933C22.0361 -0.0419523 16.3526 1.7518 11.6129 5.12666C6.8732 8.50152 3.31885 13.2855 1.45581 18.7976C-0.407235 24.3098 -0.48403 30.2691 1.23636 35.8274C2.95674 41.3857 6.45995 46.5041 11.1111 50L12.6177 47.6536C8.40885 44.4901 5.30514 40.0797 3.74835 35.0499C2.19157 30.0202 2.26107 24.6276 3.94694 19.6396C5.63281 14.6517 8.84915 10.3226 13.1381 7.2687C17.4271 4.21478 22.5701 2.59161 27.8351 2.63025C33.1001 2.66888 38.2188 4.36736 42.4625 7.4839C46.7062 10.6004 49.8586 14.9762 51.4711 19.9884C53.0836 25.0005 53.074 30.3936 51.4435 35.3999C49.8131 40.4063 46.645 44.7707 42.3902 47.8721L43.939 49.997Z"/>
</mask>
<path d="M43.939 49.997C48.641 46.5698 52.1421 41.7467 53.9438 36.2142C55.7456 30.6818 55.7563 24.7219 53.9743 19.183C52.1924 13.6442 48.7086 8.80853 44.019 5.36447C39.3293 1.92041 33.6727 0.0434422 27.8544 0.000744933C22.0361 -0.0419523 16.3526 1.7518 11.6129 5.12666C6.8732 8.50152 3.31885 13.2855 1.45581 18.7976C-0.407235 24.3098 -0.48403 30.2691 1.23636 35.8274C2.95674 41.3857 6.45995 46.5041 11.1111 50L12.6177 47.6536C8.40885 44.4901 5.30514 40.0797 3.74835 35.0499C2.19157 30.0202 2.26107 24.6276 3.94694 19.6396C5.63281 14.6517 8.84915 10.3226 13.1381 7.2687C17.4271 4.21478 22.5701 2.59161 27.8351 2.63025C33.1001 2.66888 38.2188 4.36736 42.4625 7.4839C46.7062 10.6004 49.8586 14.9762 51.4711 19.9884C53.0836 25.0005 53.074 30.3936 51.4435 35.3999C49.8131 40.4063 46.645 44.7707 42.3902 47.8721L43.939 49.997Z" fill="#37D3D3"/>
<path d="M43.939 49.997L31.8174 58.8325L40.6528 70.9541L52.7745 62.1187L43.939 49.997ZM11.1111 50L2.09874 61.9907L15.008 71.6935L23.7332 58.1044L11.1111 50ZM12.6177 47.6536L25.2398 55.758L32.7676 44.034L21.6301 35.6629L12.6177 47.6536ZM42.3902 47.8721L33.5547 35.7504L21.433 44.5858L30.2685 56.7075L42.3902 47.8721ZM52.7745 62.1187C60.0271 56.8323 65.4274 49.3928 68.2065 40.8592L39.6812 31.5692C38.8568 34.1005 37.2549 36.3073 35.1036 37.8754L52.7745 62.1187ZM68.2065 40.8592C70.9857 32.3256 71.0022 23.1327 68.2536 14.5892L39.6951 23.7769C40.5104 26.3111 40.5055 29.038 39.6812 31.5692L68.2065 40.8592ZM68.2536 14.5892C65.505 6.04565 60.1314 -1.41315 52.8978 -6.72549L35.1402 17.4544C37.2859 19.0302 38.8798 21.2427 39.6951 23.7769L68.2536 14.5892ZM52.8978 -6.72549C45.6641 -12.0378 36.939 -14.933 27.9645 -14.9989L27.7444 15.0003C30.4064 15.0199 32.9945 15.8787 35.1402 17.4544L52.8978 -6.72549ZM27.9645 -14.9989C18.99 -15.0647 10.2233 -12.2979 2.91251 -7.09231L20.3133 17.3456C22.4819 15.8015 25.0823 14.9808 27.7444 15.0003L27.9645 -14.9989ZM2.91251 -7.09231C-4.39833 -1.8867 -9.88078 5.49243 -12.7545 13.9947L15.6661 23.6006C16.5185 21.0786 18.1447 18.8897 20.3133 17.3456L2.91251 -7.09231ZM-12.7545 13.9947C-15.6281 22.497 -15.7466 31.6891 -13.093 40.2626L15.5657 31.3923C14.7785 28.8492 14.8137 26.1225 15.6661 23.6006L-12.7545 13.9947ZM-13.093 40.2626C-10.4825 48.6966 -5.18982 56.5125 2.09874 61.9907L20.1235 38.0093C18.1097 36.4957 16.396 34.0749 15.5657 31.3923L-13.093 40.2626ZM23.7332 58.1044L25.2398 55.758L-0.00442041 39.5491L-1.51102 41.8956L23.7332 58.1044ZM21.6301 35.6629C19.9443 34.3958 18.7012 32.6293 18.0777 30.6148L-10.581 39.4851C-8.09093 47.53 -3.12662 54.5845 3.60534 59.6443L21.6301 35.6629ZM18.0777 30.6148C17.4541 28.6002 17.482 26.4403 18.1572 24.4425L-10.2633 14.8367C-12.9598 22.8148 -13.071 31.4402 -10.581 39.4851L18.0777 30.6148ZM18.1572 24.4425C18.8324 22.4447 20.1207 20.7108 21.8385 19.4877L4.43773 -4.95026C-2.42237 -0.0655913 -7.56682 6.8586 -10.2633 14.8367L18.1572 24.4425ZM21.8385 19.4877C23.5564 18.2645 25.6163 17.6144 27.7251 17.6298L27.9452 -12.3693C19.524 -12.4311 11.2978 -9.83493 4.43773 -4.95026L21.8385 19.4877ZM27.7251 17.6298C29.8338 17.6453 31.884 18.3256 33.5837 19.5739L51.3413 -4.60606C44.5536 -9.59089 36.3664 -12.3076 27.9452 -12.3693L27.7251 17.6298ZM33.5837 19.5739C35.2834 20.8221 36.546 22.5747 37.1919 24.5822L65.7504 15.3945C63.1712 7.3777 58.1289 0.378761 51.3413 -4.60606L33.5837 19.5739ZM37.1919 24.5822C37.8377 26.5897 37.8339 28.7498 37.1808 30.755L65.7062 40.0449C68.314 32.0374 68.3295 23.4113 65.7504 15.3945L37.1919 24.5822ZM37.1808 30.755C36.5278 32.7601 35.2589 34.5082 33.5547 35.7504L51.2256 59.9937C58.0311 55.0333 63.0984 48.0524 65.7062 40.0449L37.1808 30.755ZM30.2685 56.7075L31.8174 58.8325L56.0607 41.1616L54.5118 39.0366L30.2685 56.7075Z" fill="#37D3D3" mask="url(#path-7-inside-1_951_1151)"/>
</svg>
